<svg width="193" height="104" viewBox="0 0 193 104" fill="none" xmlns="http://www.w3.org/2000/svg">
<path d="M62 5C62 2.23858 64.2386 0 67 0H113C115.761 0 118 2.23858 118 5V51C118 53.7614 115.761 56 113 56H67C64.2386 56 62 53.7614 62 51V5Z" fill="url(#paint0_linear)"/>
<path d="M62.5 5C62.5 2.51472 64.5147 0.5 67 0.5H113C115.485 0.5 117.5 2.51472 117.5 5V51C117.5 53.4853 115.485 55.5 113 55.5H67C64.5147 55.5 62.5 53.4853 62.5 51V5Z" stroke="white" stroke-opacity="0.1"/>
<path d="M91.9999 26L90.9999 26C90.9999 26.2652 91.1053 26.5196 91.2928 26.7071C91.4804 26.8946 91.7347 27 91.9999 27V26ZM109 26H110C110 25.4477 109.552 25 109 25V26ZM108 46.3819C108 46.9342 108.448 47.3819 109 47.3819C109.552 47.3819 110 46.9342 110 46.3819H108ZM91 -2.05407e-06L90.9999 26L92.9999 26L93 2.05407e-06L91 -2.05407e-06ZM91.9999 27H109V25H91.9999V27ZM108 26V46.3819H110V26H108Z" fill="white"/>
<path d="M107 15H110V18H107V15Z" fill="white"/>
<path d="M122.968 97V74.9609H129.749C131.687 74.9609 133.417 75.3999 134.941 76.2778C136.475 77.1457 137.671 78.3869 138.528 80.0015C139.386 81.606 139.815 83.4325 139.815 85.481V86.4951C139.815 88.5436 139.391 90.3651 138.543 91.9595C137.706 93.5539 136.52 94.79 134.986 95.668C133.452 96.5459 131.722 96.9899 129.794 97H122.968ZM127.509 78.6392V93.3521H129.704C131.48 93.3521 132.837 92.7718 133.775 91.6113C134.714 90.4508 135.193 88.7909 135.213 86.6313V85.4658C135.213 83.2256 134.749 81.5303 133.821 80.3799C132.892 79.2194 131.535 78.6392 129.749 78.6392H127.509Z" fill="#999999"/>
<path d="M152.045 84.7241C151.45 84.6434 150.925 84.603 150.471 84.603C148.816 84.603 147.731 85.1631 147.217 86.2832V97H142.842V80.6221H146.975L147.096 82.5747C147.974 81.0711 149.19 80.3193 150.744 80.3193C151.228 80.3193 151.682 80.3849 152.106 80.5161L152.045 84.7241Z" fill="#999999"/>
<path d="M158.781 97H154.392V80.6221H158.781V97ZM154.134 76.3838C154.134 75.7279 154.351 75.188 154.785 74.7642C155.229 74.3403 155.83 74.1284 156.586 74.1284C157.333 74.1284 157.929 74.3403 158.373 74.7642C158.817 75.188 159.039 75.7279 159.039 76.3838C159.039 77.0498 158.812 77.5947 158.357 78.0186C157.913 78.4424 157.323 78.6543 156.586 78.6543C155.85 78.6543 155.254 78.4424 154.8 78.0186C154.356 77.5947 154.134 77.0498 154.134 76.3838Z" fill="#999999"/>
<path d="M168.529 91.6567L171.572 80.6221H176.143L170.618 97H166.44L160.916 80.6221H165.487L168.529 91.6567Z" fill="#999999"/>
<path d="M185.407 97.3027C183.005 97.3027 181.047 96.5661 179.534 95.0928C178.03 93.6195 177.278 91.6567 177.278 89.2046V88.7808C177.278 87.1359 177.596 85.6676 178.232 84.376C178.868 83.0742 179.766 82.0752 180.926 81.3789C182.097 80.6725 183.429 80.3193 184.922 80.3193C187.163 80.3193 188.924 81.0257 190.205 82.4385C191.497 83.8512 192.143 85.8543 192.143 88.4478V90.2339H181.713C181.855 91.3035 182.278 92.1613 182.985 92.8071C183.701 93.453 184.604 93.7759 185.694 93.7759C187.38 93.7759 188.696 93.1654 189.645 91.9443L191.794 94.3511C191.139 95.2795 190.25 96.006 189.13 96.5308C188.01 97.0454 186.769 97.3027 185.407 97.3027ZM184.907 83.8613C184.039 83.8613 183.333 84.154 182.788 84.7393C182.253 85.3245 181.91 86.1621 181.759 87.252H187.844V86.9038C187.824 85.9351 187.561 85.1883 187.057 84.6636C186.552 84.1287 185.836 83.8613 184.907 83.8613Z" fill="#999999"/>
<path d="M14.2275 87.4487H5.50879V93.3521H15.7412V97H0.967773V74.9609H15.7109V78.6392H5.50879V83.8916H14.2275V87.4487Z" fill="#3399CC"/>
<path d="M22.7344 97H18.3447V73.75H22.7344V97Z" fill="#3399CC"/>
<path d="M33.8901 97.3027C31.4884 97.3027 29.5308 96.5661 28.0171 95.0928C26.5135 93.6195 25.7617 91.6567 25.7617 89.2046V88.7808C25.7617 87.1359 26.0796 85.6676 26.7153 84.376C27.3511 83.0742 28.2492 82.0752 29.4097 81.3789C30.5802 80.6725 31.9123 80.3193 33.4058 80.3193C35.646 80.3193 37.4069 81.0257 38.6885 82.4385C39.9801 83.8512 40.626 85.8543 40.626 88.4478V90.2339H30.1968C30.3381 91.3035 30.7619 92.1613 31.4683 92.8071C32.1847 93.453 33.0879 93.7759 34.1777 93.7759C35.863 93.7759 37.1799 93.1654 38.1284 91.9443L40.2778 94.3511C39.6219 95.2795 38.7339 96.006 37.6138 96.5308C36.4937 97.0454 35.2524 97.3027 33.8901 97.3027ZM33.3906 83.8613C32.5228 83.8613 31.8164 84.154 31.2715 84.7393C30.7367 85.3245 30.3936 86.1621 30.2422 87.252H36.3271V86.9038C36.307 85.9351 36.0446 85.1883 35.54 84.6636C35.0355 84.1287 34.319 83.8613 33.3906 83.8613Z" fill="#3399CC"/>
<path d="M57.8667 88.9624C57.8667 91.4852 57.2915 93.5085 56.1411 95.0322C55.0008 96.5459 53.4569 97.3027 51.5093 97.3027C49.8543 97.3027 48.5173 96.7275 47.498 95.5771V103.297H43.1235V80.6221H47.1802L47.3315 82.2266C48.3911 80.9551 49.7736 80.3193 51.479 80.3193C53.4972 80.3193 55.0664 81.0661 56.1865 82.5596C57.3066 84.0531 57.8667 86.1117 57.8667 88.7354V88.9624ZM53.4922 88.6445C53.4922 87.1208 53.2197 85.9451 52.6748 85.1177C52.14 84.2902 51.3579 83.8765 50.3286 83.8765C48.9562 83.8765 48.0127 84.4012 47.498 85.4507V92.1562C48.0329 93.236 48.9865 93.7759 50.3589 93.7759C52.4478 93.7759 53.4922 92.0654 53.4922 88.6445Z" fill="#3399CC"/>
<path d="M64.8599 82.4082C66.0203 81.0156 67.4785 80.3193 69.2344 80.3193C72.7865 80.3193 74.5877 82.383 74.6382 86.5103V97H70.2637V86.6313C70.2637 85.6929 70.0618 85.0016 69.6582 84.5576C69.2546 84.1035 68.5835 83.8765 67.645 83.8765C66.3634 83.8765 65.4351 84.3709 64.8599 85.3599V97H60.4854V73.75H64.8599V82.4082Z" fill="#3399CC"/>
<path d="M87.4287 97C87.2269 96.6064 87.0806 96.117 86.9897 95.5317C85.9302 96.7124 84.5527 97.3027 82.8574 97.3027C81.2529 97.3027 79.9209 96.8385 78.8613 95.9102C77.8118 94.9818 77.2871 93.8112 77.2871 92.3984C77.2871 90.6628 77.9279 89.3307 79.2095 88.4023C80.5011 87.474 82.363 87.0047 84.7949 86.9946H86.8081V86.0562C86.8081 85.2993 86.6113 84.6938 86.2178 84.2397C85.8343 83.7856 85.2238 83.5586 84.3862 83.5586C83.6496 83.5586 83.0693 83.7352 82.6455 84.0884C82.2318 84.4416 82.0249 84.9259 82.0249 85.5415H77.6504C77.6504 84.5929 77.943 83.715 78.5283 82.9077C79.1136 82.1004 79.9411 81.4697 81.0107 81.0156C82.0804 80.5514 83.2812 80.3193 84.6133 80.3193C86.6315 80.3193 88.231 80.8289 89.4116 81.8481C90.6024 82.8573 91.1978 84.2801 91.1978 86.1167V93.2158C91.2078 94.7699 91.4248 95.9455 91.8486 96.7427V97H87.4287ZM83.811 93.9575C84.4569 93.9575 85.0522 93.8162 85.5972 93.5337C86.1421 93.241 86.5457 92.8525 86.8081 92.3682V89.5527H85.1733C82.9836 89.5527 81.818 90.3096 81.6768 91.8232L81.6616 92.0806C81.6616 92.6255 81.8534 93.0745 82.2368 93.4277C82.6203 93.7809 83.145 93.9575 83.811 93.9575Z" fill="#3399CC"/>
<path d="M98.5845 80.6221L98.7207 82.5142C99.8913 81.0509 101.46 80.3193 103.428 80.3193C105.164 80.3193 106.456 80.8289 107.303 81.8481C108.151 82.8674 108.585 84.3911 108.605 86.4194V97H104.23V86.5254C104.23 85.597 104.029 84.9259 103.625 84.5122C103.221 84.0884 102.55 83.8765 101.612 83.8765C100.381 83.8765 99.4574 84.4012 98.8418 85.4507V97H94.4673V80.6221H98.5845Z" fill="#3399CC"/>
<path d="M117.172 76.5957V80.6221H119.973V83.8311H117.172V92.0049C117.172 92.6104 117.288 93.0443 117.521 93.3066C117.753 93.569 118.197 93.7002 118.853 93.7002C119.337 93.7002 119.766 93.6649 120.139 93.5942V96.9092C119.281 97.1715 118.398 97.3027 117.49 97.3027C114.423 97.3027 112.858 95.7537 112.798 92.6558V83.8311H110.406V80.6221H112.798V76.5957H117.172Z" fill="#3399CC"/>
<defs>
<linearGradient id="paint0_linear" x1="90" y1="0" x2="90" y2="56" gradientUnits="userSpaceOnUse">
<stop stop-color="#0088D5"/>
<stop offset="1" stop-color="#4DC9FF"/>
</linearGradient>
</defs>
</svg>
